<svg preserveAspectRatio="none" width="100%" height="100%" overflow="visible" style="display: block;" viewBox="0 0 408 467" fill="none" xmlns="http://www.w3.org/2000/svg">
<g id="Frame" clip-path="url(#clip0_0_254)">
<path id="Vector" d="M405.939 341.552C408.24 346.166 408.617 351.506 406.989 356.399C405.36 361.292 401.859 365.337 397.254 367.646L241.826 445.479C239.129 446.829 236.156 447.531 233.141 447.531C230.126 447.531 227.153 446.829 224.457 445.479L69.028 367.646C64.5841 365.246 61.2476 361.207 59.7252 356.386C58.2029 351.565 58.6142 346.34 60.8721 341.817C63.13 337.294 67.0571 333.829 71.8216 332.156C76.5861 330.483 81.8137 330.734 86.3971 332.854L233.141 406.29L379.905 332.835C384.512 330.53 389.843 330.152 394.729 331.783C399.614 333.414 403.653 336.921 405.958 341.533M405.958 263.699C408.259 268.313 408.637 273.654 407.008 278.546C405.38 283.439 401.878 287.484 397.274 289.793L241.845 367.626C239.148 368.976 236.175 369.678 233.161 369.678C230.146 369.678 227.173 368.976 224.476 367.626L69.0474 289.793C64.6035 287.393 61.267 283.355 59.7447 278.533C58.2223 273.712 58.6336 268.487 60.8915 263.964C63.1494 259.441 67.0765 255.977 71.841 254.304C76.6055 252.631 81.8331 252.881 86.4165 255.001L233.141 328.457L379.905 255.001C384.512 252.697 389.843 252.319 394.729 253.95C399.614 255.581 403.653 259.087 405.958 263.699ZM405.958 185.866C408.259 190.48 408.637 195.82 407.008 200.713C405.38 205.606 401.878 209.651 397.274 211.96L241.845 289.793C239.148 291.143 236.175 291.845 233.161 291.845C230.146 291.845 227.173 291.143 224.476 289.793L69.0474 211.96C64.6035 209.56 61.267 205.521 59.7447 200.7C58.2223 195.879 58.6336 190.653 60.8915 186.131C63.1494 181.608 67.0765 178.143 71.841 176.47C76.6055 174.797 81.8331 175.048 86.4165 177.168L233.141 250.623L379.905 177.168C384.512 174.864 389.843 174.486 394.729 176.117C399.614 177.747 403.653 181.254 405.958 185.866ZM233.297 19.4583C234.022 19.4583 234.741 19.5037 235.453 19.5945L237.61 19.9837L239.281 20.4507L239.514 20.5675L239.747 20.6064L240.31 20.8788L241.282 21.2485L241.593 21.4236L241.826 21.5209L397.254 99.3542C400.477 100.972 403.187 103.456 405.081 106.528C406.975 109.6 407.978 113.14 407.978 116.75C407.978 120.36 406.975 123.9 405.081 126.972C403.187 130.044 400.477 132.528 397.254 134.146L241.826 211.979C239.129 213.329 236.156 214.031 233.141 214.031C230.126 214.031 227.153 213.329 224.457 211.979L69.028 134.146C65.8051 132.528 63.0952 130.044 61.2015 126.972C59.3077 123.9 58.3047 120.36 58.3047 116.75C58.3047 113.14 59.3077 109.6 61.2015 106.528C63.0952 103.456 65.8051 100.972 69.028 99.3542L224.457 21.5209L224.67 21.4236L225.02 21.229L226.535 20.6064L226.749 20.5675L227.002 20.4507L228.673 19.9837L230.81 19.5945L231.898 19.4973L233.297 19.4583Z" fill="url(#paint0_linear_0_254)"/>
</g>
<defs>
<linearGradient id="paint0_linear_0_254" x1="237.25" y1="9.32922" x2="233.159" y2="631.016" gradientUnits="userSpaceOnUse">
<stop stop-color="#4D8EC5"/>
<stop offset="1" stop-color="white" stop-opacity="0"/>
</linearGradient>
<clipPath id="clip0_0_254">
<rect width="408" height="467" fill="white"/>
</clipPath>
</defs>
</svg>
