<svg preserveAspectRatio="none" width="100%" height="100%" overflow="visible" style="display: block;" viewBox="0 0 706.54 369" fill="none" xmlns="http://www.w3.org/2000/svg">
<path id="Vector 14" d="M362.944 40.7047C343.923 40.7047 283.965 90.0673 258.34 90.0673C232.716 90.0673 196.912 229.57 162.863 229.57C128.814 229.57 84.2341 81.4825 61.4178 81.4825C38.6014 81.4825 1.04021 340 1.04021 340L17.5402 368H705.54V47.1433C686.519 47.1433 672.848 1 654.291 1C635.734 1 580.928 208.108 556.357 208.108C531.785 208.108 500.699 47.7211 472.196 90.0673C443.694 132.413 381.965 40.7047 362.944 40.7047Z" fill="url(#paint0_linear_0_14)" stroke="var(--stroke-0, #005DAC)" stroke-width="2"/>
<defs>
<linearGradient id="paint0_linear_0_14" x1="361.54" y1="-7.684" x2="360.047" y2="525.326" gradientUnits="userSpaceOnUse">
<stop stop-color="#4D8EC5"/>
<stop offset="1" stop-color="white" stop-opacity="0"/>
</linearGradient>
</defs>
</svg>
