<svg preserveAspectRatio="none" width="100%" height="100%" overflow="visible" style="display: block;" viewBox="0 0 45 45" fill="none" xmlns="http://www.w3.org/2000/svg">
<g id="Frame">
<path id="Vector" d="M33.75 3.75C35.1432 3.75044 36.5088 4.13895 37.6936 4.87197C38.8784 5.605 39.8357 6.65356 40.4579 7.9001C41.0802 9.14664 41.343 10.5419 41.2168 11.9294C41.0906 13.3169 40.5804 14.6418 39.7434 15.7556C38.9064 16.8694 37.7757 17.7281 36.4781 18.2353C35.1805 18.7425 33.7672 18.8783 32.3968 18.6273C31.0263 18.3764 29.7529 17.7487 28.7192 16.8146C27.6855 15.8805 26.9324 14.6769 26.5444 13.3387L14.7412 14.8125C14.6899 14.9757 14.631 15.1365 14.565 15.2944L26.6512 23.6025C27.553 22.9348 28.6339 22.5521 29.7549 22.5036C30.8759 22.455 31.9858 22.7428 32.9419 23.33C33.8981 23.9171 34.6567 24.7768 35.1205 25.7986C35.5842 26.8203 35.7318 27.9574 35.5442 29.0636C35.3566 30.1699 34.8425 31.1947 34.0679 32.0065C33.2933 32.8183 32.2936 33.3798 31.1974 33.619C30.1011 33.8582 28.9584 33.764 27.916 33.3487C26.8737 32.9333 25.9794 32.2157 25.3481 31.2881L18.735 33.2719C18.745 33.4306 18.75 33.59 18.75 33.75C18.75 35.7391 17.9598 37.6468 16.5533 39.0533C15.1468 40.4598 13.2391 41.25 11.25 41.25C9.26088 41.25 7.35322 40.4598 5.9467 39.0533C4.54018 37.6468 3.75 35.7391 3.75 33.75L3.75938 33.375C3.8386 31.7867 4.42063 30.2647 5.42141 29.0288C6.42219 27.7929 7.78991 26.9071 9.32703 26.4994C10.8641 26.0916 12.4911 26.183 13.9729 26.7603C15.4546 27.3377 16.7146 28.3711 17.5706 29.7112L24.3956 27.66L24.4144 27.4687C24.4431 27.2137 24.4894 26.9637 24.5531 26.7187L12.0131 18.0937C11.1559 18.5489 10.1955 18.7746 9.22531 18.7488C8.25509 18.7229 7.30806 18.4465 6.4763 17.9464C5.64453 17.4462 4.95633 16.7393 4.4786 15.8945C4.00087 15.0496 3.74987 14.0956 3.75 13.125L3.75938 12.795C3.83369 11.5163 4.34216 10.3013 5.2007 9.35087C6.05925 8.40041 7.21646 7.7714 8.481 7.56786C9.74554 7.36432 11.0417 7.59843 12.1551 8.23148C13.2685 8.86454 14.1326 9.85862 14.6044 11.0494L26.4394 9.56813C26.8199 7.91428 27.7502 6.43839 29.078 5.38161C30.4059 4.32483 32.0529 3.74963 33.75 3.75Z" fill="url(#paint0_radial_0_310)"/>
</g>
<defs>
<radialGradient id="paint0_radial_0_310" cx="0" cy="0" r="1" gradientUnits="userSpaceOnUse" gradientTransform="translate(22.4988 22.5) rotate(89.9986) scale(34.7727 53.913)">
<stop stop-color="#005DAC"/>
<stop offset="1" stop-color="white"/>
</radialGradient>
</defs>
</svg>
