<svg preserveAspectRatio="none" width="100%" height="100%" overflow="visible" style="display: block;" viewBox="0 0 45 45" fill="none" xmlns="http://www.w3.org/2000/svg">
<g id="Frame">
<path id="Vector" d="M9.35625 24.1163C9.70033 26.5962 10.7368 28.9289 12.3467 30.8465C13.9565 32.7641 16.0745 34.1888 18.4575 34.9571C20.8404 35.7253 23.3917 35.806 25.8185 35.1899C28.2452 34.5737 30.449 33.2857 32.1769 31.4738C32.0129 31.0949 31.914 30.6911 31.8844 30.2794L31.875 30L31.8844 29.7188C31.9404 28.9731 32.218 28.2612 32.6816 27.6745C33.1452 27.0878 33.7736 26.6531 34.4861 26.4263C35.1986 26.1994 35.9627 26.1907 36.6801 26.4013C37.3976 26.612 38.0357 27.0323 38.5125 27.6083C38.9893 28.1843 39.2831 28.8897 39.356 29.6339C39.4289 30.378 39.2777 31.127 38.9217 31.7846C38.5658 32.4422 38.0213 32.9784 37.3584 33.3242C36.6954 33.6701 35.9442 33.8099 35.2013 33.7256C33.024 36.1353 30.2041 37.8735 27.073 38.7359C23.942 39.5984 20.6298 39.5492 17.5257 38.5942C14.4217 37.6392 11.6547 35.818 9.54986 33.3447C7.44508 30.8714 6.08996 27.8487 5.64375 24.6319C5.59199 24.1476 5.7307 23.6622 6.03053 23.2783C6.33036 22.8945 6.76778 22.6424 7.25019 22.5754C7.73261 22.5084 8.22216 22.6318 8.61524 22.9194C9.00832 23.2069 9.27407 23.6362 9.35625 24.1163Z" fill="url(#paint0_radial_0_284)"/>
<path id="Vector_2" d="M22.5 15C23.9674 15 25.4025 15.4305 26.6277 16.2381C27.8529 17.0456 28.8142 18.1949 29.3927 19.5435C29.9711 20.892 30.1413 22.3806 29.882 23.825C29.6228 25.2693 28.9456 26.6058 27.9343 27.669C26.9229 28.7322 25.6219 29.4754 24.1924 29.8066C22.7628 30.1377 21.2676 30.0422 19.8918 29.5319C18.516 29.0216 17.3201 28.1189 16.4523 26.9356C15.5844 25.7524 15.0827 24.3406 15.0094 22.875L15 22.5L15.0094 22.125C15.1056 20.2032 15.9368 18.3919 17.331 17.0657C18.7252 15.7396 20.5758 15 22.5 15Z" fill="url(#paint1_radial_0_284)"/>
<path id="Vector_3" d="M24.6413 5.79375C28.3526 6.27296 31.8035 7.959 34.4625 10.5922C37.1214 13.2254 38.8409 16.6597 39.3562 20.3663C39.4094 20.8511 39.2716 21.3376 38.9719 21.7225C38.6722 22.1074 38.2344 22.3604 37.7513 22.4277C37.2682 22.4951 36.7778 22.3715 36.3844 22.0832C35.9909 21.7949 35.7252 21.3647 35.6438 20.8837C35.2416 17.9913 33.8995 15.3113 31.8242 13.2567C29.749 11.2022 27.0557 9.88695 24.1594 9.51375C22.0875 9.24403 19.9812 9.46606 18.011 10.1619C16.0409 10.8577 14.2623 12.0077 12.8194 13.5187C13.0353 14.0193 13.1396 14.561 13.1248 15.106C13.11 15.651 12.9765 16.1862 12.7337 16.6743C12.4909 17.1624 12.1446 17.5918 11.7189 17.9324C11.2932 18.273 10.7984 18.5166 10.2689 18.6464C9.73935 18.7762 9.18791 18.789 8.65296 18.6838C8.11801 18.5787 7.61242 18.3582 7.17141 18.0377C6.7304 17.7171 6.36459 17.3043 6.09946 16.8279C5.83433 16.3515 5.67625 15.8231 5.63625 15.2794L5.625 15L5.63438 14.7187C5.67208 14.2163 5.81066 13.7266 6.04183 13.2789C6.273 12.8312 6.59202 12.4347 6.97983 12.113C7.36765 11.7914 7.81632 11.5512 8.29903 11.4067C8.78175 11.2623 9.28862 11.2167 9.78938 11.2725C11.6376 9.22659 13.9543 7.65936 16.541 6.70515C19.1277 5.75093 21.9072 5.4382 24.6413 5.79375Z" fill="url(#paint2_radial_0_284)"/>
</g>
<defs>
<radialGradient id="paint0_radial_0_284" cx="0" cy="0" r="1" gradientTransform="matrix(0.000740447 15.5697 -48.5114 0.000569881 22.5035 30.953)" gradientUnits="userSpaceOnUse">
<stop stop-color="#005DAC"/>
<stop offset="1" stop-color="white"/>
</radialGradient>
<radialGradient id="paint1_radial_0_284" cx="0" cy="0" r="1" gradientUnits="userSpaceOnUse" gradientTransform="translate(22.5 22.5) rotate(89.9986) scale(13.9091 21.5666)">
<stop stop-color="#005DAC"/>
<stop offset="1" stop-color="white"/>
</radialGradient>
<radialGradient id="paint2_radial_0_284" cx="0" cy="0" r="1" gradientTransform="matrix(0.000740485 15.5729 -48.5139 0.000569998 22.4962 14.0485)" gradientUnits="userSpaceOnUse">
<stop stop-color="#005DAC"/>
<stop offset="1" stop-color="white"/>
</radialGradient>
</defs>
</svg>
