<svg preserveAspectRatio="none" width="100%" height="100%" overflow="visible" style="display: block;" viewBox="0 0 45 45" fill="none" xmlns="http://www.w3.org/2000/svg">
<g id="Frame">
<g id="Vector">
<path d="M22.5 7.5C30.5438 7.5 37.2431 12.0544 42.4969 20.9138L42.9094 21.6244L42.9938 21.8119L43.05 21.9675L43.0763 22.0706L43.1025 22.2244L43.1231 22.4119V22.6181L43.0969 22.8262C43.0846 22.8959 43.0683 22.9647 43.0481 23.0325L42.975 23.235L42.9075 23.3756L42.8775 23.4319C37.695 32.4994 31.065 37.2694 23.0869 37.4925L22.5 37.5C14.2575 37.5 7.43063 32.7206 2.1225 23.43C1.96071 23.1468 1.8756 22.8262 1.8756 22.5C1.8756 22.1738 1.96071 21.8532 2.1225 21.57C7.43063 12.2794 14.2575 7.5 22.5 7.5ZM22.5 16.875C21.0082 16.875 19.5774 17.4676 18.5225 18.5225C17.4676 19.5774 16.875 21.0082 16.875 22.5C16.875 23.9918 17.4676 25.4226 18.5225 26.4775C19.5774 27.5324 21.0082 28.125 22.5 28.125C23.9918 28.125 25.4226 27.5324 26.4775 26.4775C27.5324 25.4226 28.125 23.9918 28.125 22.5C28.125 21.0082 27.5324 19.5774 26.4775 18.5225C25.4226 17.4676 23.9918 16.875 22.5 16.875Z" fill="var(--fill-0, black)"/>
<path d="M22.5 7.5C30.5438 7.5 37.2431 12.0544 42.4969 20.9138L42.9094 21.6244L42.9938 21.8119L43.05 21.9675L43.0763 22.0706L43.1025 22.2244L43.1231 22.4119V22.6181L43.0969 22.8262C43.0846 22.8959 43.0683 22.9647 43.0481 23.0325L42.975 23.235L42.9075 23.3756L42.8775 23.4319C37.695 32.4994 31.065 37.2694 23.0869 37.4925L22.5 37.5C14.2575 37.5 7.43063 32.7206 2.1225 23.43C1.96071 23.1468 1.8756 22.8262 1.8756 22.5C1.8756 22.1738 1.96071 21.8532 2.1225 21.57C7.43063 12.2794 14.2575 7.5 22.5 7.5ZM22.5 16.875C21.0082 16.875 19.5774 17.4676 18.5225 18.5225C17.4676 19.5774 16.875 21.0082 16.875 22.5C16.875 23.9918 17.4676 25.4226 18.5225 26.4775C19.5774 27.5324 21.0082 28.125 22.5 28.125C23.9918 28.125 25.4226 27.5324 26.4775 26.4775C27.5324 25.4226 28.125 23.9918 28.125 22.5C28.125 21.0082 27.5324 19.5774 26.4775 18.5225C25.4226 17.4676 23.9918 16.875 22.5 16.875Z" fill="url(#paint0_radial_0_295)"/>
</g>
</g>
<defs>
<radialGradient id="paint0_radial_0_295" cx="0" cy="0" r="1" gradientTransform="matrix(0.000905186 27.8182 -59.3045 0.0010182 22.4994 22.5)" gradientUnits="userSpaceOnUse">
<stop stop-color="#005DAC"/>
<stop offset="1" stop-color="white"/>
</radialGradient>
</defs>
</svg>
