<svg preserveAspectRatio="none" width="100%" height="100%" overflow="visible" style="display: block;" viewBox="0 0 45 45" fill="none" xmlns="http://www.w3.org/2000/svg">
<g id="Frame">
<path id="Vector" d="M15 5.625C16.4918 5.625 17.9226 6.21763 18.9775 7.27252C20.0324 8.32742 20.625 9.75816 20.625 11.25V33.75C20.625 35.2418 20.0324 36.6726 18.9775 37.7275C17.9226 38.7824 16.4918 39.375 15 39.375H11.25C9.75816 39.375 8.32742 38.7824 7.27252 37.7275C6.21763 36.6726 5.625 35.2418 5.625 33.75V11.25C5.625 9.75816 6.21763 8.32742 7.27252 7.27252C8.32742 6.21763 9.75816 5.625 11.25 5.625H15Z" fill="url(#paint0_radial_0_292)"/>
<g id="Vector_2">
<path d="M33.75 5.625C35.2418 5.625 36.6726 6.21763 37.7275 7.27252C38.7824 8.32742 39.375 9.75816 39.375 11.25V22.5C39.375 23.9918 38.7824 25.4226 37.7275 26.4775C36.6726 27.5324 35.2418 28.125 33.75 28.125H30C28.5082 28.125 27.0774 27.5324 26.0225 26.4775C24.9676 25.4226 24.375 23.9918 24.375 22.5V11.25C24.375 9.75816 24.9676 8.32742 26.0225 7.27252C27.0774 6.21763 28.5082 5.625 30 5.625H33.75Z" fill="var(--fill-0, black)"/>
<path d="M33.75 5.625C35.2418 5.625 36.6726 6.21763 37.7275 7.27252C38.7824 8.32742 39.375 9.75816 39.375 11.25V22.5C39.375 23.9918 38.7824 25.4226 37.7275 26.4775C36.6726 27.5324 35.2418 28.125 33.75 28.125H30C28.5082 28.125 27.0774 27.5324 26.0225 26.4775C24.9676 25.4226 24.375 23.9918 24.375 22.5V11.25C24.375 9.75816 24.9676 8.32742 26.0225 7.27252C27.0774 6.21763 28.5082 5.625 30 5.625H33.75Z" fill="url(#paint1_radial_0_292)"/>
</g>
</g>
<defs>
<radialGradient id="paint0_radial_0_292" cx="0" cy="0" r="1" gradientTransform="matrix(0.000329178 31.2954 -21.5666 0.00114547 13.125 22.5)" gradientUnits="userSpaceOnUse">
<stop stop-color="#005DAC"/>
<stop offset="1" stop-color="white"/>
</radialGradient>
<radialGradient id="paint1_radial_0_292" cx="0" cy="0" r="1" gradientTransform="matrix(0.000329178 20.8636 -21.5666 0.000763649 31.875 16.875)" gradientUnits="userSpaceOnUse">
<stop stop-color="#005DAC"/>
<stop offset="1" stop-color="white"/>
</radialGradient>
</defs>
</svg>
