<svg preserveAspectRatio="none" width="100%" height="100%" overflow="visible" style="display: block;" viewBox="0 0 45 45" fill="none" xmlns="http://www.w3.org/2000/svg">
<g id="Frame">
<g id="Vector">
<path d="M38.5406 7.815C38.7455 7.95164 38.9215 8.1273 39.0585 8.33195C39.1955 8.5366 39.2908 8.76623 39.339 9.00773C39.3872 9.24923 39.3874 9.49786 39.3396 9.73943C39.2917 9.981 39.1967 10.2108 39.06 10.4156L34.1456 17.7881L36.4631 18.9487C36.892 19.18 37.214 19.5691 37.3609 20.0337C37.5078 20.4983 37.4681 21.0018 37.2502 21.4376C37.0323 21.8734 36.6533 22.2073 36.1935 22.3685C35.7337 22.5297 35.2292 22.5056 34.7869 22.3013L32.0494 20.9325L24.7819 31.8356C25.3977 32.5111 25.8396 33.3265 26.0694 34.2112C26.2991 35.0959 26.3099 36.0233 26.1006 36.9131C25.8913 37.8028 25.4684 38.6282 24.8683 39.3178C24.2683 40.0073 23.5093 40.5402 22.6569 40.8704C21.8046 41.2006 20.8846 41.3181 19.9766 41.2127C19.0687 41.1074 18.2001 40.7823 17.446 40.2657C16.6919 39.7492 16.0751 39.0566 15.6489 38.248C15.2227 37.4394 15 36.5391 15 35.625L15.0094 35.295C15.0194 35.1262 15.0362 34.9594 15.06 34.7944L10.2094 31.56C9.79564 31.284 9.50848 30.855 9.41108 30.3673C9.31368 29.8795 9.41401 29.3731 9.69 28.9594C9.96599 28.5456 10.395 28.2585 10.8827 28.1611C11.3705 28.0637 11.8769 28.164 12.2906 28.44L16.8356 31.4681C17.4522 30.9043 18.1871 30.4853 18.9864 30.242C19.7858 29.9987 20.6294 29.9372 21.4556 30.0619L35.94 8.33438C36.0766 8.12949 36.2523 7.95353 36.4569 7.81654C36.6616 7.67955 36.8912 7.58422 37.1327 7.53599C37.3742 7.48776 37.6229 7.48757 37.8644 7.53545C38.106 7.58332 38.3358 7.67831 38.5406 7.815ZM18.7275 7.06687L18.99 7.22062L25.1906 11.1656C25.6701 11.4706 26.0845 11.8672 26.4101 12.3328C26.7358 12.7984 26.9662 13.3238 27.0882 13.8787C27.2101 14.4337 27.2212 15.0073 27.1208 15.5665C27.0204 16.1257 26.8105 16.6596 26.5031 17.1375L20.7019 26.1562C20.0856 27.1161 19.1142 27.7927 18.0003 28.038C16.8863 28.2833 15.7205 28.0773 14.7581 27.465L8.55938 23.52C8.07995 23.2151 7.6655 22.8184 7.33986 22.3528C7.01421 21.8872 6.78379 21.3618 6.66182 20.8069C6.53986 20.2519 6.52876 19.6784 6.62916 19.1191C6.72956 18.5599 6.93949 18.026 7.24688 17.5481L13.0481 8.52937C13.636 7.6144 14.5478 6.95531 15.6009 6.6841C16.6541 6.4129 17.7709 6.54962 18.7275 7.06687Z" fill="var(--fill-0, black)"/>
<path d="M38.5406 7.815C38.7455 7.95164 38.9215 8.1273 39.0585 8.33195C39.1955 8.5366 39.2908 8.76623 39.339 9.00773C39.3872 9.24923 39.3874 9.49786 39.3396 9.73943C39.2917 9.981 39.1967 10.2108 39.06 10.4156L34.1456 17.7881L36.4631 18.9487C36.892 19.18 37.214 19.5691 37.3609 20.0337C37.5078 20.4983 37.4681 21.0018 37.2502 21.4376C37.0323 21.8734 36.6533 22.2073 36.1935 22.3685C35.7337 22.5297 35.2292 22.5056 34.7869 22.3013L32.0494 20.9325L24.7819 31.8356C25.3977 32.5111 25.8396 33.3265 26.0694 34.2112C26.2991 35.0959 26.3099 36.0233 26.1006 36.9131C25.8913 37.8028 25.4684 38.6282 24.8683 39.3178C24.2683 40.0073 23.5093 40.5402 22.6569 40.8704C21.8046 41.2006 20.8846 41.3181 19.9766 41.2127C19.0687 41.1074 18.2001 40.7823 17.446 40.2657C16.6919 39.7492 16.0751 39.0566 15.6489 38.248C15.2227 37.4394 15 36.5391 15 35.625L15.0094 35.295C15.0194 35.1262 15.0362 34.9594 15.06 34.7944L10.2094 31.56C9.79564 31.284 9.50848 30.855 9.41108 30.3673C9.31368 29.8795 9.41401 29.3731 9.69 28.9594C9.96599 28.5456 10.395 28.2585 10.8827 28.1611C11.3705 28.0637 11.8769 28.164 12.2906 28.44L16.8356 31.4681C17.4522 30.9043 18.1871 30.4853 18.9864 30.242C19.7858 29.9987 20.6294 29.9372 21.4556 30.0619L35.94 8.33438C36.0766 8.12949 36.2523 7.95353 36.4569 7.81654C36.6616 7.67955 36.8912 7.58422 37.1327 7.53599C37.3742 7.48776 37.6229 7.48757 37.8644 7.53545C38.106 7.58332 38.3358 7.67831 38.5406 7.815ZM18.7275 7.06687L18.99 7.22062L25.1906 11.1656C25.6701 11.4706 26.0845 11.8672 26.4101 12.3328C26.7358 12.7984 26.9662 13.3238 27.0882 13.8787C27.2101 14.4337 27.2212 15.0073 27.1208 15.5665C27.0204 16.1257 26.8105 16.6596 26.5031 17.1375L20.7019 26.1562C20.0856 27.1161 19.1142 27.7927 18.0003 28.038C16.8863 28.2833 15.7205 28.0773 14.7581 27.465L8.55938 23.52C8.07995 23.2151 7.6655 22.8184 7.33986 22.3528C7.01421 21.8872 6.78379 21.3618 6.66182 20.8069C6.53986 20.2519 6.52876 19.6784 6.62916 19.1191C6.72956 18.5599 6.93949 18.026 7.24688 17.5481L13.0481 8.52937C13.636 7.6144 14.5478 6.95531 15.6009 6.6841C16.6541 6.4129 17.7709 6.54962 18.7275 7.06687Z" fill="url(#paint0_radial_0_302)"/>
</g>
</g>
<defs>
<radialGradient id="paint0_radial_0_302" cx="0" cy="0" r="1" gradientTransform="matrix(0.000720111 32.1785 -47.1791 0.0011778 22.9683 23.899)" gradientUnits="userSpaceOnUse">
<stop stop-color="#005DAC"/>
<stop offset="1" stop-color="white"/>
</radialGradient>
</defs>
</svg>
