<svg viewBox="0 0 36 36" fill="none" xmlns="http://www.w3.org/2000/svg">
  <g clip-path="url(#contact-chat-clip)">
    <path d="M8.7315 7.365C14.58 3.2175 22.9335 3.5565 28.341 8.1675C33.8415 12.861 34.593 20.5245 30.069 26.0145C25.8075 31.185 18.1215 32.889 11.7225 30.222L11.373 30.0705L4.812 31.467L4.752 31.476L4.6995 31.4865H4.6725L4.6395 31.494H4.5825L4.533 31.5L4.5015 31.4985L4.467 31.5L4.4175 31.4955H4.365L4.332 31.4895L4.299 31.4865L4.2465 31.476L4.1955 31.4685L4.1715 31.4625L4.1355 31.455L4.062 31.431L4.026 31.4235L4.0095 31.416L3.9765 31.4055L3.909 31.3755L3.864 31.3575L3.8475 31.3485L3.8265 31.3395L3.78 31.3125L3.7125 31.2765L3.6885 31.26L3.633 31.221L3.573 31.1805L3.57 31.1745L3.5505 31.161L3.486 31.101L3.4485 31.071L3.4395 31.0605L3.3555 30.9675L3.336 30.9465L3.3195 30.9255L3.261 30.8415L3.24 30.813L3.2325 30.798L3.1695 30.6885L3.159 30.6705L3.153 30.6585L3.1425 30.6405L3.1215 30.5835L3.0915 30.5205L3.0855 30.4965L3.0795 30.4815L3.054 30.39L3.0435 30.363L3.0405 30.3405L3.033 30.312L3.0255 30.2625L3.0135 30.1995L3.0105 30.153L3.006 30.138V30.114L3 30.033L3.0015 29.979L3.003 29.9445L3.006 29.865L3.012 29.8275V29.799L3.024 29.7465L3.0315 29.6955L3.039 29.6655L3.045 29.6355L3.072 29.5455L3.0765 29.526L4.8015 24.351L4.7685 24.2955C1.4535 18.675 2.955 11.709 8.388 7.617L8.7315 7.365Z" fill="url(#contact-chat-grad)"/>
  </g>
  <defs>
    <radialGradient id="contact-chat-grad" cx="0" cy="0" r="1" gradientTransform="matrix(0.000658829 25.0661 -43.1641 0.000917469 18.0108 17.9839)" gradientUnits="userSpaceOnUse">
      <stop stop-color="#005DAC"/>
      <stop offset="1" stop-color="white"/>
    </radialGradient>
    <clipPath id="contact-chat-clip">
      <rect width="36" height="36" fill="white"/>
    </clipPath>
  </defs>
</svg>
