<svg preserveAspectRatio="none" width="100%" height="100%" overflow="visible" style="display: block;" viewBox="0 0 16 16" fill="none" xmlns="http://www.w3.org/2000/svg">
<g id="Frame" clip-path="url(#clip0_1086_735)">
<g id="Vector">
</g>
<path id="Vector_2" d="M2 5.33333C2 4.8029 2.21071 4.29419 2.58579 3.91912C2.96086 3.54405 3.46957 3.33333 4 3.33333H12C12.5304 3.33333 13.0391 3.54405 13.4142 3.91912C13.7893 4.29419 14 4.8029 14 5.33333V10.6667C14 11.1971 13.7893 11.7058 13.4142 12.0809C13.0391 12.456 12.5304 12.6667 12 12.6667H4C3.46957 12.6667 2.96086 12.456 2.58579 12.0809C2.21071 11.7058 2 11.1971 2 10.6667V5.33333Z" stroke="currentColor" stroke-linecap="round" stroke-linejoin="round"/>
<path id="Vector_3" d="M2 6.66667H14" stroke="currentColor" stroke-linecap="round" stroke-linejoin="round"/>
<path id="Vector_4" d="M4.66797 10H4.67464" stroke="currentColor" stroke-linecap="round" stroke-linejoin="round"/>
<path id="Vector_5" d="M7.33203 10H8.66536" stroke="currentColor" stroke-linecap="round" stroke-linejoin="round"/>
</g>
<defs>
<clipPath id="clip0_1086_735">
<rect width="16" height="16" fill="white"/>
</clipPath>
</defs>
</svg>
