<svg preserveAspectRatio="none" width="100%" height="100%" overflow="visible" style="display: block;" viewBox="0 0 39.6 39.6" fill="none" xmlns="http://www.w3.org/2000/svg">
<g id="Frame" clip-path="url(#clip0_0_11)">
<g id="Vector">
</g>
<path id="Vector_2" d="M19.6086 3.31155L19.7967 3.3L19.9914 3.31155L20.0888 3.32475L20.1894 3.3462L20.3726 3.4023C20.4991 3.44894 20.6193 3.51101 20.7306 3.5871L20.9022 3.7224L21.323 4.0821C24.6515 6.84679 28.8583 8.33136 33.1848 8.26816L33.7491 8.25166C34.118 8.23482 34.482 8.34225 34.7826 8.55674C35.0832 8.77123 35.3032 9.08038 35.4074 9.43471C36.2182 12.1928 36.4663 15.0858 36.137 17.9416C35.8076 20.7975 34.9076 23.5581 33.4903 26.0593C32.073 28.5604 30.1674 30.7512 27.8868 32.5014C25.6061 34.2515 22.9969 35.5254 20.2142 36.2472C19.9426 36.3177 19.6575 36.3177 19.3859 36.2472C16.603 35.5256 13.9936 34.2518 11.7128 32.5017C9.4319 30.7517 7.52612 28.5609 6.10867 26.0597C4.69123 23.5585 3.79104 20.7979 3.46161 17.942C3.13218 15.086 3.38022 12.1929 4.191 9.43471C4.29513 9.08038 4.51513 8.77123 4.81577 8.55674C5.11641 8.34225 5.48032 8.23482 5.84925 8.25166C10.3661 8.45813 14.7973 6.97124 18.2754 4.0821L18.7094 3.71085L18.8678 3.5871C18.9791 3.51101 19.0993 3.44894 19.2258 3.4023L19.4106 3.3462C19.4753 3.33058 19.5425 3.31901 19.6086 3.31155Z" fill="url(#paint0_radial_0_11)"/>
<g id="Frame_2" clip-path="url(#clip1_0_11)">
<g id="Vector_3">
</g>
<path id="Vector_4" d="M15.6001 19.5001L18.6001 22.5001L24.6001 16.5001" stroke="var(--stroke-0, white)" stroke-width="2" stroke-linecap="round" stroke-linejoin="round"/>
</g>
</g>
<defs>
<radialGradient id="paint0_radial_0_11" cx="0" cy="0" r="1" gradientUnits="userSpaceOnUse" gradientTransform="translate(19.7992 19.8) rotate(89.9986) scale(30.6 47.3859)">
<stop stop-color="#1A6DB4"/>
<stop offset="1" stop-color="white"/>
</radialGradient>
<clipPath id="clip0_0_11">
<rect width="39.6" height="39.6" fill="white"/>
</clipPath>
<clipPath id="clip1_0_11">
<rect width="14.4" height="14.4" fill="white" transform="translate(12.6001 12.3)"/>
</clipPath>
</defs>
</svg>
