<svg width="104" height="40" viewBox="0 0 104 40" fill="none" xmlns="http://www.w3.org/2000/svg">
<path d="M32 1.44006L15.9999 11.3712V30.2402L32 20.3091V1.44006Z" fill="#005DAC"/>
<path d="M0 1.44006L16.0001 11.3712V30.2402L0 20.3091V1.44006Z" fill="#00549B"/>
<path d="M16.0003 11.0398L25.6003 16.4799L16.0003 21.9199L6.40021 16.4799L16.0003 11.0398Z" fill="#4D8EC5"/>
<path d="M6.40021 5.27982L16.0003 0.15979V11.0399L6.40021 16.4799V5.27982Z" fill="#B3CEE6"/>
<path d="M25.6003 5.27982L16.0002 0.15979V11.0399L25.6003 16.4799V5.27982Z" fill="#80AED6"/>
<path d="M19.52 36.3201C19.52 38.2642 17.9441 39.8401 16 39.8401C14.0559 39.8401 12.48 38.2642 12.48 36.3201C12.48 34.3761 14.0559 32.8001 16 32.8001C17.9441 32.8001 19.52 34.3761 19.52 36.3201Z" fill="#005DAC"/>
<path d="M40 12.7547V0H45.4C46.3695 0 47.181 0.134937 47.8344 0.404812C48.492 0.674687 48.9852 1.05251 49.314 1.53829C49.6471 2.02406 49.8136 2.58665 49.8136 3.22604C49.8136 3.71182 49.7103 4.14569 49.5037 4.52767C49.2972 4.90549 49.0126 5.21896 48.6501 5.46808C48.2876 5.71719 47.8681 5.89157 47.3918 5.99122V6.11578C47.9145 6.14069 48.3972 6.27978 48.8398 6.53304C49.2866 6.78631 49.6449 7.13923 49.9147 7.59178C50.1845 8.04019 50.3194 8.57164 50.3194 9.18612C50.3194 9.87119 50.1424 10.4836 49.7883 11.0233C49.4342 11.5589 48.922 11.9824 48.2517 12.2938C47.5815 12.6011 46.7679 12.7547 45.811 12.7547H40ZM43.13 10.2698H45.0649C45.7435 10.2698 46.2431 10.1431 46.5635 9.88987C46.888 9.6366 47.0503 9.28369 47.0503 8.83113C47.0503 8.50313 46.9724 8.2208 46.8164 7.98414C46.6604 7.74333 46.4391 7.55857 46.1524 7.42986C45.8658 7.297 45.5222 7.23057 45.1218 7.23057H43.13V10.2698ZM43.13 5.24387H44.8625C45.204 5.24387 45.5075 5.18782 45.7731 5.07572C46.0386 4.96362 46.2452 4.80169 46.3927 4.58995C46.5445 4.3782 46.6204 4.12286 46.6204 3.82392C46.6204 3.39627 46.4665 3.05996 46.1588 2.815C45.851 2.57004 45.4358 2.44756 44.9131 2.44756H43.13V5.24387Z" fill="#005DAC"/>
<path d="M56.3581 12.9353C55.3379 12.9353 54.4611 12.7298 53.7276 12.3187C52.9983 11.9036 52.4356 11.3264 52.0393 10.5874C51.6473 9.8442 51.4513 8.98268 51.4513 8.00282C51.4513 7.01882 51.6473 6.1573 52.0393 5.41825C52.4356 4.67506 52.9983 4.09794 53.7276 3.6869C54.4611 3.27171 55.3379 3.06412 56.3581 3.06412C57.3782 3.06412 58.2529 3.27171 58.9822 3.6869C59.7157 4.09794 60.2784 4.67506 60.6705 5.41825C61.0667 6.1573 61.2648 7.01882 61.2648 8.00282C61.2648 8.98268 61.0667 9.8442 60.6705 10.5874C60.2784 11.3264 59.7157 11.9036 58.9822 12.3187C58.2529 12.7298 57.3782 12.9353 56.3581 12.9353ZM56.377 10.6372C56.748 10.6372 57.062 10.5251 57.3192 10.3009C57.5763 10.0767 57.7723 9.76531 57.9072 9.36673C58.0463 8.96815 58.1159 8.50728 58.1159 7.98414C58.1159 7.4527 58.0463 6.98768 57.9072 6.5891C57.7723 6.19051 57.5763 5.87912 57.3192 5.65491C57.062 5.43071 56.748 5.31861 56.377 5.31861C55.9934 5.31861 55.6688 5.43071 55.4033 5.65491C55.1419 5.87912 54.9417 6.19051 54.8026 6.5891C54.6677 6.98768 54.6002 7.4527 54.6002 7.98414C54.6002 8.50728 54.6677 8.96815 54.8026 9.36673C54.9417 9.76531 55.1419 10.0767 55.4033 10.3009C55.6688 10.5251 55.9934 10.6372 56.377 10.6372Z" fill="#005DAC"/>
<path d="M65.9408 7.29907V12.7547H62.8488V3.18867H65.7891V4.94494H65.8966C66.1115 4.35952 66.4783 3.90073 66.9968 3.56857C67.5153 3.23227 68.1329 3.06412 68.8495 3.06412C69.5324 3.06412 70.1247 3.21566 70.6263 3.51875C71.1321 3.81769 71.5242 4.23703 71.8024 4.77678C72.0848 5.31238 72.2239 5.93932 72.2197 6.6576V12.7547H69.1277V7.25548C69.1319 6.72403 68.9949 6.30884 68.7167 6.0099C68.4427 5.71096 68.0612 5.5615 67.5722 5.5615C67.2476 5.5615 66.961 5.63208 66.7122 5.77324C66.4677 5.91026 66.2781 6.10747 66.1432 6.36489C66.0125 6.62231 65.945 6.93371 65.9408 7.29907Z" fill="#005DAC"/>
<path d="M75.6769 16.342C75.306 16.342 74.9561 16.3129 74.6273 16.2548C74.2985 16.2008 74.016 16.1281 73.78 16.0368L74.4629 13.8259C74.7664 13.9255 75.0404 13.9837 75.2849 14.0003C75.5336 14.0169 75.7465 13.9774 75.9235 13.8819C76.1048 13.7906 76.2439 13.6266 76.3409 13.3899L76.461 13.1035L73.0085 3.18867H76.246L78.0355 10.0144H78.1366L79.9514 3.18867H83.2078L79.5467 13.6702C79.3697 14.1933 79.1188 14.6542 78.7943 15.0528C78.4739 15.4555 78.0587 15.7711 77.5486 15.9994C77.0427 16.2278 76.4188 16.342 75.6769 16.342Z" fill="#005DAC"/>
<path d="M86.8705 12.9166C86.2509 12.9166 85.7007 12.8149 85.2202 12.6115C84.7438 12.4039 84.3666 12.0925 84.0883 11.6773C83.8143 11.2579 83.6773 10.7327 83.6773 10.1016C83.6773 9.57017 83.7722 9.12177 83.9619 8.7564C84.1516 8.39103 84.4129 8.09417 84.7459 7.86581C85.079 7.63746 85.4626 7.46515 85.8968 7.3489C86.3309 7.22849 86.7946 7.14753 87.2879 7.10601C87.8401 7.05619 88.2848 7.00429 88.622 6.95031C88.9593 6.89219 89.2038 6.81122 89.3555 6.70743C89.5115 6.59948 89.5895 6.44793 89.5895 6.25279V6.22165C89.5895 5.90195 89.4778 5.65491 89.2544 5.48053C89.0309 5.30615 88.7295 5.21896 88.3501 5.21896C87.9412 5.21896 87.6124 5.30615 87.3637 5.48053C87.115 5.65491 86.9569 5.89573 86.8895 6.20297L84.0377 6.10332C84.1221 5.52205 84.3391 5.00306 84.689 4.54635C85.0431 4.08549 85.5279 3.72427 86.1434 3.4627C86.763 3.19698 87.5071 3.06412 88.3754 3.06412C88.9951 3.06412 89.5663 3.13678 90.089 3.28209C90.6117 3.42326 91.067 3.63085 91.4548 3.90488C91.8426 4.17476 92.1419 4.50691 92.3527 4.90134C92.5677 5.29577 92.6752 5.74626 92.6752 6.25279V12.7547H89.7665V11.4219H89.6907C89.5178 11.7458 89.2965 12.0198 89.0267 12.244C88.7612 12.4682 88.4471 12.6364 88.0846 12.7485C87.7263 12.8606 87.3216 12.9166 86.8705 12.9166ZM87.8253 10.9237C88.1583 10.9237 88.4576 10.8573 88.7232 10.7244C88.993 10.5915 89.208 10.4089 89.3682 10.1764C89.5284 9.93969 89.6085 9.66567 89.6085 9.35427V8.445C89.5199 8.49067 89.4124 8.53219 89.286 8.56956C89.1637 8.60693 89.0288 8.64222 88.8813 8.67544C88.7338 8.70865 88.582 8.73771 88.426 8.76263C88.2701 8.78754 88.1204 8.81037 87.9771 8.83113C87.6862 8.8768 87.4375 8.94739 87.2309 9.04288C87.0286 9.13837 86.8726 9.26293 86.763 9.41655C86.6576 9.56602 86.605 9.74455 86.605 9.95215C86.605 10.2677 86.7188 10.5085 86.9464 10.6746C87.1783 10.8407 87.4712 10.9237 87.8253 10.9237Z" fill="#005DAC"/>
<path d="M98.1131 12.8917C97.3965 12.8917 96.7452 12.709 96.1593 12.3437C95.5733 11.9783 95.1054 11.4302 94.7555 10.6995C94.4056 9.96876 94.2307 9.06156 94.2307 7.97791C94.2307 6.85274 94.412 5.92687 94.7745 5.20028C95.137 4.47369 95.6113 3.93602 96.1972 3.58726C96.7874 3.2385 97.4218 3.06412 98.1005 3.06412C98.6105 3.06412 99.0469 3.15131 99.4094 3.32569C99.7719 3.49592 100.071 3.71597 100.307 3.98584C100.543 4.25572 100.722 4.53597 100.845 4.82661H100.908V0H104V12.7547H100.94V11.204H100.845C100.714 11.4987 100.529 11.7748 100.288 12.0323C100.048 12.2897 99.7466 12.4973 99.3841 12.6551C99.0258 12.8128 98.6021 12.8917 98.1131 12.8917ZM99.1881 10.5189C99.5632 10.5189 99.8836 10.4151 100.149 10.2075C100.415 9.99575 100.619 9.69888 100.763 9.31691C100.906 8.93493 100.978 8.48652 100.978 7.97169C100.978 7.44854 100.906 6.99806 100.763 6.62024C100.623 6.24241 100.419 5.95178 100.149 5.74833C99.8836 5.54489 99.5632 5.44317 99.1881 5.44317C98.8045 5.44317 98.4799 5.54696 98.2143 5.75456C97.9487 5.96216 97.7464 6.25487 97.6073 6.63269C97.4724 7.01052 97.4049 7.45685 97.4049 7.97169C97.4049 8.48652 97.4745 8.93493 97.6136 9.31691C97.7527 9.69888 97.9529 9.99575 98.2143 10.2075C98.4799 10.4151 98.8045 10.5189 99.1881 10.5189Z" fill="#005DAC"/>
<path d="M102.924 26.8467V33.5126C102.924 34.0946 102.73 34.617 102.344 35.0799C101.837 35.6751 101.198 35.9727 100.425 35.9727L96.2463 35.9267V33.4371L99.5449 33.4134C99.6249 33.4134 99.6915 33.3936 99.7448 33.3539C99.8115 33.301 99.8448 33.2283 99.8448 33.1357V26.8467H102.924Z" fill="#005DAC"/>
<path d="M100.984 36.8853C101.411 36.8853 101.777 37.0374 102.084 37.3416C102.39 37.6458 102.544 38.0161 102.544 38.4526C102.544 38.8758 102.39 39.2395 102.084 39.5437C101.777 39.8479 101.411 40 100.984 40C100.545 40 100.171 39.8479 99.8648 39.5437C99.5716 39.2395 99.425 38.8758 99.425 38.4526C99.425 38.0161 99.5716 37.6458 99.8648 37.3416C100.171 37.0374 100.545 36.8853 100.984 36.8853Z" fill="#005DAC"/>
<path d="M99.1676 24.5735V23.6601C99.5385 23.6601 100.312 23.6601 100.651 23.6601C101.022 23.6601 101.362 23.6014 101.615 23.439C101.875 23.2766 102.075 23.0631 102.215 22.7985C102.356 22.5339 102.426 22.2031 102.426 21.8062C102.426 21.6197 102.405 21.4423 102.363 21.2739C102.321 21.0995 102.257 20.9461 102.173 20.8138C102.089 20.6815 101.987 20.5762 101.868 20.498C101.755 20.4199 101.625 20.3808 101.478 20.3808C101.316 20.3808 101.168 20.4349 101.035 20.5431C100.909 20.6454 100.807 20.7777 100.729 20.9401C100.659 21.1025 100.624 21.2649 100.624 21.4272C100.624 21.5536 100.652 21.6648 100.708 21.761C100.772 21.8513 100.873 21.9204 101.014 21.9685C101.154 22.0167 101.337 22.0407 101.562 22.0407C101.766 22.0407 101.969 22.0227 102.173 21.9866C102.384 21.9505 102.563 21.9024 102.711 21.8422L102.753 22.4737C102.584 22.576 102.384 22.6482 102.152 22.6903C101.927 22.7324 101.699 22.7534 101.467 22.7534C101.2 22.7534 100.961 22.7293 100.75 22.6812C100.547 22.6331 100.371 22.564 100.224 22.4737C100.083 22.3775 99.9741 22.2572 99.8968 22.1129C99.8266 21.9685 99.7915 21.8001 99.7915 21.6077C99.7915 21.3791 99.8336 21.1506 99.9179 20.922C100.002 20.6875 100.122 20.474 100.276 20.2815C100.431 20.0891 100.617 19.9357 100.835 19.8214C101.053 19.7011 101.295 19.641 101.562 19.641C101.843 19.641 102.089 19.7042 102.3 19.8305C102.51 19.9507 102.686 20.1161 102.827 20.3266C102.967 20.5371 103.072 20.7747 103.143 21.0393C103.213 21.304 103.248 21.5776 103.248 21.8603C103.248 22.4196 103.115 22.9008 102.848 23.3037C102.608 23.6806 102.31 24.0259 101.878 24.3176C101.803 24.3677 101.723 24.4088 101.636 24.4313C101.084 24.5735 99.8712 24.5735 99.1676 24.5735Z" fill="#005DAC"/>
<path d="M93.866 22.7748C94.291 22.7748 94.6452 22.9231 94.9286 23.2197C95.2249 23.5034 95.373 23.858 95.373 24.2836C95.373 24.6962 95.2249 25.0509 94.9286 25.3475C94.6452 25.6441 94.291 25.7924 93.866 25.7924C93.4538 25.7924 93.0996 25.6441 92.8033 25.3475C92.5071 25.0509 92.3589 24.6962 92.3589 24.2836C92.3589 23.8709 92.5071 23.5163 92.8033 23.2197C93.0996 22.9231 93.4538 22.7748 93.866 22.7748Z" fill="#005DAC"/>
<path d="M95.373 27.0303V33.2588C95.373 33.3104 95.3794 33.3684 95.3923 33.4329H96.2525V35.9281H95.7304L94.89 35.0383H94.8513C94.3619 35.6315 93.7307 35.9281 92.9579 35.9281L88.9198 35.9495V33.4233L92.0112 33.4329C92.1271 33.4329 92.2173 33.3942 92.2817 33.3168C92.3589 33.2523 92.3976 33.1621 92.3976 33.046V27.0303H95.373Z" fill="#005DAC"/>
<path d="M87.8465 26.8467V33.2349C87.8465 33.2878 87.8535 33.3473 87.8675 33.4134L88.9198 33.4233V35.9506H88.2933L87.3414 35.0601H87.2782C86.7591 35.6685 86.0025 35.8896 85.1607 35.8896H60.7269V33.4234L84.1845 33.4134C84.3248 33.4134 84.4301 33.3738 84.5002 33.2944C84.5704 33.2283 84.6054 33.1357 84.6054 33.0167V26.8467H87.8465Z" fill="#005DAC"/>
<path d="M82.4167 36.8853C82.8797 36.8853 83.2726 37.0374 83.5953 37.3416C83.918 37.6458 84.0793 38.0161 84.0793 38.4526C84.0793 38.8758 83.918 39.2395 83.5953 39.5437C83.2726 39.8479 82.8797 40 82.4167 40C81.9677 40 81.5819 39.8479 81.2592 39.5437C80.9365 39.2395 80.7752 38.8758 80.7752 38.4526C80.7752 38.0161 80.9365 37.6458 81.2592 37.3416C81.5819 37.0374 81.9677 36.8853 82.4167 36.8853Z" fill="#005DAC"/>
<path d="M86.1839 36.8853C86.6469 36.8853 87.0397 37.0374 87.3624 37.3416C87.6851 37.6458 87.8085 38.1015 87.8085 38.538C87.8085 38.9612 87.6851 39.2395 87.3624 39.5437C87.0397 39.8479 86.6469 40 86.1839 40C85.7349 40 85.3491 39.8479 85.0264 39.5437C84.7177 39.2395 84.5634 38.8758 84.5634 38.4526C84.5634 38.0161 84.7177 37.6458 85.0264 37.3416C85.3491 37.0374 85.7349 36.8853 86.1839 36.8853Z" fill="#005DAC"/>
<path d="M55.0728 21.9211V33.222C55.0728 33.2483 55.0788 33.2877 55.091 33.3403L55.1092 33.3601C55.1457 33.4521 55.2187 33.4981 55.3281 33.4981L60.7624 33.4233V35.8911H54.5437C53.9478 35.8911 53.4066 35.8122 52.9567 35.352C52.4945 34.8655 52.2635 34.2804 52.2635 33.5967V21.9211H55.0728Z" fill="#005DAC"/>
<path d="M44.5199 26.7015C44.836 26.6226 45.2739 26.5831 45.8333 26.5831C47.3291 26.5831 48.5331 27.0893 49.4452 28.1017C50.26 29.009 50.6674 30.1594 50.6674 31.5532V33.4465C50.6674 34.1696 50.4242 34.7679 49.9378 35.2412C49.4999 35.6751 48.9892 35.8921 48.4054 35.8921H40.8226V33.4465L47.6028 33.3479C47.773 33.3479 47.8582 33.2558 47.8582 33.0718V31.7898C47.8582 30.9878 47.6271 30.3304 47.165 29.8176C46.715 29.3048 46.1252 29.0484 45.3955 29.0484C45.0185 29.0484 44.7266 29.0747 44.5199 29.1273V26.7015Z" fill="#005DAC"/>
</svg>
