<svg width="36" height="36" viewBox="0 0 36 36" fill="none" xmlns="http://www.w3.org/2000/svg">
<path d="M13.5 4.5C14.2956 4.5 15.0587 4.81607 15.6213 5.37868C16.1839 5.94129 16.5 6.70435 16.5 7.5V16.5C16.5 17.2956 16.1839 18.0587 15.6213 18.6213C15.0587 19.1839 14.2956 19.5 13.5 19.5H7.5C6.70435 19.5 5.94129 19.1839 5.37868 18.6213C4.81607 18.0587 4.5 17.2956 4.5 16.5V7.5C4.5 6.70435 4.81607 5.94129 5.37868 5.37868C5.94129 4.81607 6.70435 4.5 7.5 4.5H13.5ZM13.5 22.5C14.2956 22.5 15.0587 22.8161 15.6213 23.3787C16.1839 23.9413 16.5 24.7044 16.5 25.5V28.5C16.5 29.2956 16.1839 30.0587 15.6213 30.6213C15.0587 31.1839 14.2956 31.5 13.5 31.5H7.5C6.70435 31.5 5.94129 31.1839 5.37868 30.6213C4.81607 30.0587 4.5 29.2956 4.5 28.5V25.5C4.5 24.7044 4.81607 23.9413 5.37868 23.3787C5.94129 22.8161 6.70435 22.5 7.5 22.5H13.5ZM28.5 16.5C29.2956 16.5 30.0587 16.8161 30.6213 17.3787C31.1839 17.9413 31.5 18.7044 31.5 19.5V28.5C31.5 29.2956 31.1839 30.0587 30.6213 30.6213C30.0587 31.1839 29.2956 31.5 28.5 31.5H22.5C21.7044 31.5 20.9413 31.1839 20.3787 30.6213C19.8161 30.0587 19.5 29.2956 19.5 28.5V19.5C19.5 18.7044 19.8161 17.9413 20.3787 17.3787C20.9413 16.8161 21.7044 16.5 22.5 16.5H28.5ZM28.5 4.5C29.2956 4.5 30.0587 4.81607 30.6213 5.37868C31.1839 5.94129 31.5 6.70435 31.5 7.5V10.5C31.5 11.2956 31.1839 12.0587 30.6213 12.6213C30.0587 13.1839 29.2956 13.5 28.5 13.5H22.5C21.7044 13.5 20.9413 13.1839 20.3787 12.6213C19.8161 12.0587 19.5 11.2956 19.5 10.5V7.5C19.5 6.70435 19.8161 5.94129 20.3787 5.37868C20.9413 4.81607 21.7044 4.5 22.5 4.5H28.5Z" fill="currentColor"/>
</svg>
