<svg width="36" height="36" viewBox="0 0 36 36" fill="none" xmlns="http://www.w3.org/2000/svg">
<path d="M18 3L18.1755 3.0105C18.5103 3.04999 18.8221 3.20112 19.0605 3.43952C19.2989 3.67791 19.45 3.98967 19.4895 4.3245L19.5 4.5V10.5L19.5075 10.725C19.5612 11.4393 19.8686 12.1107 20.3743 12.618C20.8799 13.1253 21.5504 13.435 22.2645 13.491L22.5 13.5H28.5L28.6755 13.5105C29.0103 13.55 29.3221 13.7011 29.5605 13.9395C29.7989 14.1779 29.95 14.4897 29.9895 14.8245L30 15V28.5C30.0001 29.6478 29.5615 30.7523 28.7741 31.5874C27.9866 32.4225 26.9098 32.9252 25.764 32.9925L25.5 33H10.5C9.35218 33.0001 8.24773 32.5615 7.41261 31.7741C6.57749 30.9866 6.07484 29.9098 6.0075 28.764L6 28.5V7.5C5.99994 6.35218 6.43849 5.24773 7.22593 4.41261C8.01336 3.57749 9.09016 3.07484 10.236 3.0075L10.5 3H18ZM22.5 19.5H13.5C13.1022 19.5 12.7206 19.658 12.4393 19.9393C12.158 20.2206 12 20.6022 12 21C12 21.3978 12.158 21.7794 12.4393 22.0607C12.7206 22.342 13.1022 22.5 13.5 22.5H22.5C22.8978 22.5 23.2794 22.342 23.5607 22.0607C23.842 21.7794 24 21.3978 24 21C24 20.6022 23.842 20.2206 23.5607 19.9393C23.2794 19.658 22.8978 19.5 22.5 19.5Z" fill="currentColor"/>
<path d="M28.5 10.5H22.5L22.4985 4.49854L28.5 10.5Z" fill="currentColor"/>
</svg>
