<svg width="36" height="36" viewBox="0 0 36 36" fill="none" xmlns="http://www.w3.org/2000/svg">
<path d="M18.1275 9.74994L26.25 17.8724L13.0605 31.0604C12.7793 31.3418 12.3978 31.4999 12 31.4999H6C5.60218 31.4999 5.22064 31.3419 4.93934 31.0606C4.65804 30.7793 4.5 30.3978 4.5 29.9999V23.9999C4.50008 23.6021 4.65818 23.2207 4.9395 22.9394L18.1275 9.74994ZM26.2365 5.70294C27.2103 5.96373 28.0982 6.47628 28.8111 7.18907C29.5239 7.90186 30.0366 8.78976 30.2974 9.7635C30.5583 10.7372 30.5583 11.7625 30.2972 12.7362C30.0362 13.7099 29.5235 14.5977 28.8105 15.3104L28.3725 15.7499L20.25 7.62744L20.6895 7.18944C21.4024 6.47681 22.2903 5.96429 23.2639 5.70337C24.2376 5.44245 25.2628 5.4423 26.2365 5.70294Z" fill="currentColor"/>
</svg>
