<svg width="36" height="36" viewBox="0 0 36 36" fill="none" xmlns="http://www.w3.org/2000/svg">
<path d="M22.83 14.0625C23.0762 13.7553 23.4332 13.5572 23.8241 13.5109C24.215 13.4646 24.6084 13.5738 24.9195 13.815L25.0605 13.9395L31.0605 19.9395C31.2936 20.1728 31.4434 20.4765 31.4865 20.8035L31.5 21V28.5C31.5 28.8674 31.3651 29.222 31.1209 29.4965C30.8768 29.7711 30.5404 29.9465 30.1755 29.9895L30 30H5.967L5.802 29.9865L5.637 29.9565L5.4765 29.9055L5.319 29.8365L5.169 29.748L5.028 29.643L4.938 29.5605L4.83 29.4375L4.734 29.304L4.653 29.16L4.629 29.1075L4.569 28.953L4.5285 28.794L4.506 28.632L4.5 28.467L4.5135 28.302L4.542 28.1445C4.557 28.0845 4.575 28.029 4.5945 27.9765L4.6635 27.819L4.752 27.669L10.752 18.669C10.9367 18.3909 11.2088 18.1824 11.5253 18.0765C11.8418 17.9705 12.1847 17.9732 12.4995 18.084L12.6705 18.159L17.586 20.616L22.8285 14.0625H22.83Z" fill="currentColor"/>
<path d="M22.848 5.03988C23.0969 4.74087 23.4522 4.55025 23.839 4.50827C24.2258 4.46629 24.6137 4.57623 24.921 4.81488L25.0605 4.93938L31.0605 10.9394C31.3295 11.2093 31.4857 11.5715 31.4973 11.9525C31.509 12.3334 31.3752 12.7045 31.1231 12.9903C30.8711 13.2761 30.5197 13.4553 30.1403 13.4915C29.7609 13.5276 29.382 13.418 29.0805 13.1849L28.9395 13.0604L24.1005 8.22288L17.652 15.9599C17.4561 16.1948 17.1931 16.3643 16.8982 16.4455C16.6033 16.5268 16.2906 16.5159 16.002 16.4144L15.8295 16.3409L10.9485 13.9019L7.19999 18.8999C6.98086 19.1921 6.66262 19.3944 6.30498 19.4686C5.94734 19.5429 5.57489 19.4842 5.25749 19.3034L5.09999 19.1999C4.80776 18.9807 4.60552 18.6625 4.53123 18.3049C4.45694 17.9472 4.5157 17.5748 4.69649 17.2574L4.79999 17.0999L9.29999 11.0999C9.49237 10.8437 9.76173 10.6557 10.0686 10.5637C10.3755 10.4717 10.7039 10.4803 11.0055 10.5884L11.1705 10.6589L16.107 13.1264L22.848 5.03988Z" fill="currentColor"/>
</svg>
