<svg width="36" height="36" viewBox="0 0 36 36" fill="none" xmlns="http://www.w3.org/2000/svg">
<path d="M24.729 17.7855L18 13.7505L11.271 17.7855C11.0435 17.9218 10.7838 17.9954 10.5186 17.9987C10.2533 18.0019 9.99194 17.9348 9.76109 17.8042C9.53024 17.6735 9.33817 17.4839 9.20447 17.2548C9.07076 17.0257 9.00021 16.7652 9 16.5V10.5C9.0002 10.241 9.06745 9.98648 9.19521 9.76121C9.32296 9.53594 9.50685 9.34758 9.729 9.21446L17.229 4.71446C17.462 4.57488 17.7284 4.50115 18 4.50115C18.2716 4.50115 18.538 4.57488 18.771 4.71446L26.271 9.21446C26.4931 9.34758 26.677 9.53594 26.8048 9.76121C26.9325 9.98648 26.9998 10.241 27 10.5V16.5C26.9998 16.7652 26.9292 17.0257 26.7955 17.2548C26.6618 17.4839 26.4698 17.6735 26.2389 17.8042C26.0081 17.9348 25.7467 18.0019 25.4814 17.9987C25.2162 17.9954 24.9565 17.9218 24.729 17.7855Z" fill="url(#s3g0)"/>
<path d="M24.729 31.2855L18 27.2505L11.271 31.2855C11.0435 31.4218 10.7838 31.4954 10.5186 31.4987C10.2533 31.5019 9.99194 31.4348 9.76109 31.3042C9.53024 31.1735 9.33817 30.9839 9.20447 30.7548C9.07076 30.5257 9.00021 30.2652 9 30V24C9.0002 23.741 9.06745 23.4865 9.19521 23.2612C9.32296 23.0359 9.50685 22.8476 9.729 22.7145L17.229 18.2145C17.462 18.0749 17.7284 18.0012 18 18.0012C18.2716 18.0012 18.538 18.0749 18.771 18.2145L26.271 22.7145C26.4931 22.8476 26.677 23.0359 26.8048 23.2612C26.9325 23.4865 26.9998 23.741 27 24V30C26.9998 30.2652 26.9292 30.5257 26.7955 30.7548C26.6618 30.9839 26.4698 31.1735 26.2389 31.3042C26.0081 31.4348 25.7467 31.5019 25.4814 31.4987C25.2162 31.4954 24.9565 31.4218 24.729 31.2855Z" fill="url(#s3g1)"/>
<defs>
<radialGradient id="s3g0" cx="0" cy="0" r="1" gradientTransform="matrix(0.000395014 -12.516 -25.8799 -0.000458109 18 11.25)" gradientUnits="userSpaceOnUse">
<stop stop-color="#005DAC"/>
<stop offset="1" stop-color="white" stop-opacity="0"/>
</radialGradient>
<radialGradient id="s3g1" cx="0" cy="0" r="1" gradientTransform="matrix(0.000395014 -12.516 -25.8799 -0.000458109 18 24.75)" gradientUnits="userSpaceOnUse">
<stop stop-color="#005DAC"/>
<stop offset="1" stop-color="white" stop-opacity="0"/>
</radialGradient>
</defs>
</svg>
