<svg width="36" height="36" viewBox="0 0 36 36" fill="none" xmlns="http://www.w3.org/2000/svg">
<path d="M24 6H12C11.2044 6 10.4413 6.31607 9.87868 6.87868C9.31607 7.44129 9 8.20435 9 9V27C9 27.7956 9.31607 28.5587 9.87868 29.1213C10.4413 29.6839 11.2044 30 12 30H24C24.7956 30 25.5587 29.6839 26.1213 29.1213C26.6839 28.5587 27 27.7956 27 27V9C27 8.20435 26.6839 7.44129 26.1213 6.87868C25.5587 6.31607 24.7956 6 24 6Z" fill="url(#s2g0)"/>
<path d="M33 9C33.3823 9.00042 33.75 9.14682 34.0281 9.40927C34.3061 9.67173 34.4734 10.0304 34.4958 10.4121C34.5182 10.7938 34.394 11.1696 34.1486 11.4627C33.9032 11.7559 33.5551 11.9443 33.1755 11.9895L33 12H31.5V24H33C33.3823 24.0004 33.75 24.1468 34.0281 24.4093C34.3061 24.6717 34.4734 25.0304 34.4958 25.4121C34.5182 25.7938 34.394 26.1696 34.1486 26.4627C33.9032 26.7559 33.5551 26.9443 33.1755 26.9895L33 27H31.5C30.7431 27.0002 30.0142 26.7144 29.4592 26.1998C28.9042 25.6851 28.5643 24.9797 28.5075 24.225L28.5 24V12C28.4998 11.2431 28.7856 10.5142 29.3002 9.95918C29.8149 9.40421 30.5203 9.06426 31.275 9.0075L31.5 9H33Z" fill="url(#s2g1)"/>
<path d="M4.50005 9C5.25691 8.99976 5.9859 9.28561 6.54087 9.80025C7.09584 10.3149 7.43578 11.0203 7.49255 11.775L7.50005 12V24C7.50029 24.7569 7.21444 25.4858 6.6998 26.0408C6.18517 26.5958 5.47978 26.9357 4.72505 26.9925L4.50005 27H3.00005C2.61773 26.9996 2.25 26.8532 1.97199 26.5907C1.69399 26.3283 1.52669 25.9696 1.50429 25.5879C1.48188 25.2062 1.60606 24.8304 1.85144 24.5373C2.09683 24.2441 2.4449 24.0557 2.82455 24.0105L3.00005 24H4.50005V12H3.00005C2.61773 11.9996 2.25 11.8532 1.97199 11.5907C1.69399 11.3283 1.52669 10.9696 1.50429 10.5879C1.48188 10.2062 1.60606 9.83043 1.85144 9.53725C2.09683 9.24407 2.4449 9.05566 2.82455 9.0105L3.00005 9H4.50005Z" fill="url(#s2g2)"/>
<defs>
<radialGradient id="s2g0" cx="0" cy="0" r="1" gradientTransform="matrix(0.000395014 22.2545 -25.8799 0.000814559 18 18)" gradientUnits="userSpaceOnUse">
<stop stop-color="#005DAC"/>
<stop offset="1" stop-color="white" stop-opacity="0"/>
</radialGradient>
<radialGradient id="s2g1" cx="0" cy="0" r="1" gradientTransform="matrix(0.000131635 16.6909 -8.62424 0.000610919 31.4992 18)" gradientUnits="userSpaceOnUse">
<stop stop-color="#005DAC"/>
<stop offset="1" stop-color="white" stop-opacity="0"/>
</radialGradient>
<radialGradient id="s2g2" cx="0" cy="0" r="1" gradientTransform="matrix(0.000131635 16.6909 -8.62424 0.000610919 4.50088 18)" gradientUnits="userSpaceOnUse">
<stop stop-color="#005DAC"/>
<stop offset="1" stop-color="white" stop-opacity="0"/>
</radialGradient>
</defs>
</svg>
