<svg width="36" height="36" viewBox="0 0 36 36" fill="none" xmlns="http://www.w3.org/2000/svg">
<path d="M25.5 3C26.6935 3 27.8381 3.47411 28.682 4.31802C29.5259 5.16193 30 6.30653 30 7.5V31.5C30 31.7716 29.9264 32.038 29.7868 32.271C29.6473 32.504 29.4471 32.6947 29.2076 32.8228C28.9682 32.9509 28.6985 33.0116 28.4272 32.9985C28.156 32.9853 27.8934 32.8987 27.6675 32.748L24.1905 30.4305L22.0605 32.5605C21.8022 32.8188 21.4586 32.9739 21.094 32.9968C20.7295 33.0198 20.3691 32.9089 20.0805 32.685L19.9395 32.5605L18 30.6225L16.0605 32.5605C15.8022 32.8188 15.4586 32.9739 15.094 32.9968C14.7295 33.0198 14.3691 32.9089 14.0805 32.685L13.9395 32.5605L11.808 30.4305L8.3325 32.748C8.1066 32.8987 7.84397 32.9853 7.57278 32.9985C7.30158 33.0116 7.03183 32.9509 6.79238 32.8228C6.55293 32.6947 6.35271 32.504 6.21322 32.271C6.07372 32.038 6.00004 31.7716 6 31.5V7.5C6 6.30653 6.47411 5.16193 7.31802 4.31802C8.16193 3.47411 9.30653 3 10.5 3H25.5ZM18 7.5C17.6022 7.5 17.2206 7.65804 16.9393 7.93934C16.658 8.22064 16.5 8.60218 16.5 9C15.3065 9 14.1619 9.47411 13.318 10.318C12.4741 11.1619 12 12.3065 12 13.5C12 14.6935 12.4741 15.8381 13.318 16.682C14.1619 17.5259 15.3065 18 16.5 18V21C15.8955 21.0195 15.375 20.73 15.099 20.25C14.6987 19.5667 13.9554 19.1572 13.1554 19.1996C12.3554 19.242 11.6591 19.7291 11.3332 20.4497C11.0074 21.1703 11.104 22.0092 11.583 22.638L11.7 22.773C12.2571 23.3726 12.9428 23.8355 13.7055 24.126L14.0865 24.252L14.4435 24.3525L14.8185 24.429L15.099 24.474L15.4905 24.498L15.8445 24.501L16.2615 24.489L16.499 24.474C16.4988 24.8718 16.6566 25.2534 16.9378 25.5349C17.219 25.8163 17.6004 25.9746 17.9983 25.9748C18.3961 25.975 18.7777 25.8171 19.0591 25.5359C19.3406 25.2548 19.4988 24.8733 19.499 24.4755L19.764 24.468C20.9334 24.4004 22.0304 23.8795 22.8218 23.016C23.6132 22.1524 24.0368 21.0143 24.0024 19.8434C23.968 18.6726 23.4785 17.5613 22.6377 16.7457C21.797 15.93 20.6714 15.4744 19.5 15.4755V12.4755C20.1045 12.456 20.625 12.7455 20.901 13.2255C21.3013 13.8922 22.0446 14.3017 22.8446 14.2593C23.6446 14.2169 24.3409 13.7298 24.6668 13.0092C24.9926 12.2886 24.896 11.4497 24.417 10.821L24.3 10.686C23.7429 10.0864 23.0572 9.62348 22.2945 9.33297L21.9135 9.20697L21.5565 9.10647L21.1815 9.02997L20.901 8.98497L20.5095 8.96097L20.1555 8.95797L19.7385 8.96997L19.5 8.98497C19.5 8.58714 19.342 8.20561 19.0607 7.92431C18.7794 7.643 18.3978 7.48497 18 7.48497V7.5ZM19.5 18.4755C19.8978 18.4755 20.2794 18.6335 20.5607 18.9148C20.842 19.1961 21 19.5777 21 19.9755C21 20.3733 20.842 20.7549 20.5607 21.0362C20.2794 21.3175 19.8978 21.4755 19.5 21.4755V18.4755ZM16.5 12.4755V15.4755C16.1022 15.4755 15.7206 15.3175 15.4393 15.0362C15.158 14.7549 15 14.3733 15 13.9755C15 13.5777 15.158 13.1961 15.4393 12.9148C15.7206 12.6335 16.1022 12.4755 16.5 12.4755Z" fill="url(#s4g0)"/>
<defs>
<radialGradient id="s4g0" cx="0" cy="0" r="1" gradientTransform="matrix(0.000526685 27.8184 -34.5065 0.00101821 18 18.0001)" gradientUnits="userSpaceOnUse">
<stop stop-color="#005DAC"/>
<stop offset="1" stop-color="white" stop-opacity="0"/>
</radialGradient>
</defs>
</svg>
