<svg width="36" height="36" viewBox="0 0 36 36" fill="none" xmlns="http://www.w3.org/2000/svg">
<path d="M18 3C19.4834 3 20.9334 3.43987 22.1668 4.26398C23.4001 5.08809 24.3614 6.25943 24.9291 7.62987C25.4968 9.00032 25.6453 10.5083 25.3559 11.9632C25.0665 13.418 24.3522 14.7544 23.3033 15.8033C22.2544 16.8522 20.918 17.5665 19.4632 17.8559C18.0083 18.1453 16.5003 17.9968 15.1299 17.4291C13.7594 16.8614 12.5881 15.9001 11.764 14.6668C10.9399 13.4334 10.5 11.9834 10.5 10.5L10.5075 10.1745C10.5914 8.24363 11.4174 6.41967 12.8133 5.08299C14.2093 3.74631 16.0673 3.00011 18 3Z" fill="url(#s1g0)"/>
<path d="M21 21C22.9891 21 24.8968 21.7902 26.3033 23.1967C27.7098 24.6032 28.5 26.5109 28.5 28.5V30C28.5 30.7956 28.1839 31.5587 27.6213 32.1213C27.0587 32.6839 26.2956 33 25.5 33H10.5C9.70435 33 8.94129 32.6839 8.37868 32.1213C7.81607 31.5587 7.5 30.7956 7.5 30V28.5C7.5 26.5109 8.29018 24.6032 9.6967 23.1967C11.1032 21.7902 13.0109 21 15 21H21Z" fill="url(#s1g1)"/>
<defs>
<radialGradient id="s1g0" cx="0" cy="0" r="1" gradientUnits="userSpaceOnUse" gradientTransform="translate(18 10.5) rotate(89.9986) scale(13.9091 21.5666)">
<stop stop-color="#005DAC"/>
<stop offset="1" stop-color="white" stop-opacity="0"/>
</radialGradient>
<radialGradient id="s1g1" cx="0" cy="0" r="1" gradientTransform="matrix(0.000460849 11.1273 -30.1932 0.000407279 18 27)" gradientUnits="userSpaceOnUse">
<stop stop-color="#005DAC"/>
<stop offset="1" stop-color="white" stop-opacity="0"/>
</radialGradient>
</defs>
</svg>
