<svg preserveAspectRatio="none" width="100%" height="100%" overflow="visible" style="display: block;" viewBox="0 0 36 36" fill="none" xmlns="http://www.w3.org/2000/svg">
<g id="Frame">
<g id="Vector">
<path d="M22.83 14.0625C23.0762 13.7553 23.4332 13.5572 23.8241 13.5109C24.215 13.4646 24.6084 13.5738 24.9195 13.815L25.0605 13.9395L31.0605 19.9395C31.2936 20.1728 31.4434 20.4765 31.4865 20.8035L31.5 21V28.5C31.5 28.8674 31.3651 29.222 31.1209 29.4966C30.8768 29.7711 30.5404 29.9465 30.1755 29.9895L30 30H5.967L5.802 29.9865L5.637 29.9565L5.4765 29.9055L5.319 29.8365L5.169 29.748L5.028 29.643L4.938 29.5605L4.83 29.4375L4.734 29.304L4.653 29.16L4.629 29.1075L4.569 28.953L4.5285 28.794L4.506 28.632L4.5 28.467L4.5135 28.302L4.542 28.1445C4.557 28.0845 4.575 28.029 4.5945 27.9765L4.6635 27.819L4.752 27.669L10.752 18.669C10.9367 18.391 11.2088 18.1825 11.5253 18.0765C11.8418 17.9705 12.1847 17.9732 12.4995 18.084L12.6705 18.159L17.586 20.616L22.8285 14.0625H22.83Z" fill="var(--fill-0, black)"/>
<path d="M22.83 14.0625C23.0762 13.7553 23.4332 13.5572 23.8241 13.5109C24.215 13.4646 24.6084 13.5738 24.9195 13.815L25.0605 13.9395L31.0605 19.9395C31.2936 20.1728 31.4434 20.4765 31.4865 20.8035L31.5 21V28.5C31.5 28.8674 31.3651 29.222 31.1209 29.4966C30.8768 29.7711 30.5404 29.9465 30.1755 29.9895L30 30H5.967L5.802 29.9865L5.637 29.9565L5.4765 29.9055L5.319 29.8365L5.169 29.748L5.028 29.643L4.938 29.5605L4.83 29.4375L4.734 29.304L4.653 29.16L4.629 29.1075L4.569 28.953L4.5285 28.794L4.506 28.632L4.5 28.467L4.5135 28.302L4.542 28.1445C4.557 28.0845 4.575 28.029 4.5945 27.9765L4.6635 27.819L4.752 27.669L10.752 18.669C10.9367 18.391 11.2088 18.1825 11.5253 18.0765C11.8418 17.9705 12.1847 17.9732 12.4995 18.084L12.6705 18.159L17.586 20.616L22.8285 14.0625H22.83Z" fill="url(#paint0_radial_0_4)"/>
</g>
<g id="Vector_2">
<path d="M22.848 5.04C23.0969 4.74099 23.4522 4.55037 23.839 4.50839C24.2258 4.46641 24.6137 4.57635 24.921 4.815L25.0605 4.9395L31.0605 10.9395C31.3295 11.2094 31.4857 11.5717 31.4973 11.9526C31.509 12.3335 31.3752 12.7046 31.1231 12.9904C30.8711 13.2763 30.5197 13.4555 30.1403 13.4916C29.7609 13.5277 29.382 13.4181 29.0805 13.185L28.9395 13.0605L24.1005 8.223L17.652 15.96C17.4561 16.195 17.1931 16.3644 16.8982 16.4457C16.6033 16.5269 16.2906 16.516 16.002 16.4145L15.8295 16.341L10.9485 13.902L7.2 18.9C6.98086 19.1922 6.66262 19.3945 6.30499 19.4688C5.94735 19.5431 5.57489 19.4843 5.2575 19.3035L5.1 19.2C4.80776 18.9809 4.60553 18.6626 4.53124 18.305C4.45695 17.9474 4.51571 17.5749 4.6965 17.2575L4.8 17.1L9.3 11.1C9.49237 10.8438 9.76174 10.6559 10.0686 10.5638C10.3756 10.4718 10.7039 10.4804 11.0055 10.5885L11.1705 10.659L16.107 13.1265L22.848 5.04Z" fill="var(--fill-0, black)"/>
<path d="M22.848 5.04C23.0969 4.74099 23.4522 4.55037 23.839 4.50839C24.2258 4.46641 24.6137 4.57635 24.921 4.815L25.0605 4.9395L31.0605 10.9395C31.3295 11.2094 31.4857 11.5717 31.4973 11.9526C31.509 12.3335 31.3752 12.7046 31.1231 12.9904C30.8711 13.2763 30.5197 13.4555 30.1403 13.4916C29.7609 13.5277 29.382 13.4181 29.0805 13.185L28.9395 13.0605L24.1005 8.223L17.652 15.96C17.4561 16.195 17.1931 16.3644 16.8982 16.4457C16.6033 16.5269 16.2906 16.516 16.002 16.4145L15.8295 16.341L10.9485 13.902L7.2 18.9C6.98086 19.1922 6.66262 19.3945 6.30499 19.4688C5.94735 19.5431 5.57489 19.4843 5.2575 19.3035L5.1 19.2C4.80776 18.9809 4.60553 18.6626 4.53124 18.305C4.45695 17.9474 4.51571 17.5749 4.6965 17.2575L4.8 17.1L9.3 11.1C9.49237 10.8438 9.76174 10.6559 10.0686 10.5638C10.3756 10.4718 10.7039 10.4804 11.0055 10.5885L11.1705 10.659L16.107 13.1265L22.848 5.04Z" fill="url(#paint1_radial_0_4)"/>
</g>
</g>
<defs>
<radialGradient id="paint0_radial_0_4" cx="0" cy="0" r="1" gradientTransform="matrix(0.000592521 15.2995 -38.8198 0.000559992 18 21.7503)" gradientUnits="userSpaceOnUse">
<stop stop-color="#005DAC"/>
<stop offset="1" stop-color="white"/>
</radialGradient>
<radialGradient id="paint1_radial_0_4" cx="0" cy="0" r="1" gradientTransform="matrix(0.00059248 13.9095 -38.8172 0.000509116 17.999 11.9999)" gradientUnits="userSpaceOnUse">
<stop stop-color="#005DAC"/>
<stop offset="1" stop-color="white"/>
</radialGradient>
</defs>
</svg>
