<svg preserveAspectRatio="xMidYMid meet" width="100%" height="100%" overflow="visible" style="display: block;" viewBox="0 0 211 211" fill="none" xmlns="http://www.w3.org/2000/svg">
<g id="Frame">
<path id="Vector" d="M79.125 26.375C83.7884 26.375 88.2608 28.2275 91.5583 31.525C94.8558 34.8226 96.7083 39.2949 96.7083 43.9583V96.7083C96.7083 101.372 94.8558 105.844 91.5583 109.142C88.2608 112.439 83.7884 114.292 79.125 114.292H43.9583C39.2949 114.292 34.8226 112.439 31.525 109.142C28.2275 105.844 26.375 101.372 26.375 96.7083V43.9583C26.375 39.2949 28.2275 34.8226 31.525 31.525C34.8226 28.2275 39.2949 26.375 43.9583 26.375H79.125ZM79.125 131.875C83.7884 131.875 88.2608 133.728 91.5583 137.025C94.8558 140.323 96.7083 144.795 96.7083 149.458V167.042C96.7083 171.705 94.8558 176.177 91.5583 179.475C88.2608 182.772 83.7884 184.625 79.125 184.625H43.9583C39.2949 184.625 34.8226 182.772 31.525 179.475C28.2275 176.177 26.375 171.705 26.375 167.042V149.458C26.375 144.795 28.2275 140.323 31.525 137.025C34.8226 133.728 39.2949 131.875 43.9583 131.875H79.125ZM167.042 96.7083C171.705 96.7083 176.177 98.5609 179.475 101.858C182.772 105.156 184.625 109.628 184.625 114.292V167.042C184.625 171.705 182.772 176.177 179.475 179.475C176.177 182.772 171.705 184.625 167.042 184.625H131.875C127.212 184.625 122.739 182.772 119.442 179.475C116.144 176.177 114.292 171.705 114.292 167.042V114.292C114.292 109.628 116.144 105.156 119.442 101.858C122.739 98.5609 127.212 96.7083 131.875 96.7083H167.042ZM167.042 26.375C171.705 26.375 176.177 28.2275 179.475 31.525C182.772 34.8226 184.625 39.2949 184.625 43.9583V61.5417C184.625 66.2051 182.772 70.6774 179.475 73.975C176.177 77.2725 171.705 79.125 167.042 79.125H131.875C127.212 79.125 122.739 77.2725 119.442 73.975C116.144 70.6774 114.292 66.2051 114.292 61.5417V43.9583C114.292 39.2949 116.144 34.8226 119.442 31.525C122.739 28.2275 127.212 26.375 131.875 26.375H167.042Z" fill="url(#paint0_radial_0_419)"/>
</g>
<defs>
<radialGradient id="paint0_radial_0_419" cx="0" cy="0" r="1" gradientUnits="userSpaceOnUse" gradientTransform="translate(105.5 105.5) rotate(89.9986) scale(146.741 227.527)">
<stop stop-color="#005DAC"/>
<stop offset="1" stop-color="white"/>
</radialGradient>
</defs>
</svg>
