<svg preserveAspectRatio="xMidYMid meet" width="100%" height="100%" overflow="visible" style="display: block;" viewBox="0 0 180 180" fill="none" xmlns="http://www.w3.org/2000/svg">
<g id="Frame">
<path id="Vector" d="M127.5 15C133.467 15 139.19 17.3705 143.41 21.5901C147.629 25.8097 150 31.5326 150 37.5V157.5C150 158.858 149.632 160.19 148.934 161.355C148.236 162.52 147.235 163.473 146.038 164.114C144.841 164.755 143.492 165.058 142.136 164.992C140.78 164.926 139.467 164.494 138.337 163.74L120.953 152.153L110.302 162.803C109.011 164.094 107.293 164.87 105.47 164.984C103.647 165.099 101.846 164.544 100.403 163.425L99.6975 162.803L90 153.113L80.3025 162.803C79.0111 164.094 77.2928 164.87 75.4701 164.984C73.6474 165.099 71.8455 164.544 70.4025 163.425L69.6975 162.803L59.04 152.153L41.6625 163.74L41.52 163.83L41.115 164.055L40.905 164.183L40.5 164.355L40.125 164.528L39.7575 164.64L39.3075 164.783L38.9175 164.85L38.49 164.932L37.86 164.977L37.665 165H37.5L37.1325 164.977H36.84L36.7425 164.955H36.6225L36.315 164.895L36.03 164.858L35.9175 164.82L35.7825 164.805L35.5275 164.722L35.2275 164.647L35.085 164.595L34.9725 164.565L34.755 164.468L34.455 164.355L34.2975 164.272L34.2 164.235L33.99 164.115L33.72 163.98L33.615 163.905L33.48 163.83L33.195 163.627L33.03 163.522L32.955 163.455L32.805 163.35L32.4675 163.043L32.3775 162.983L32.1975 162.803L31.935 162.51L31.785 162.36L31.7325 162.277L31.65 162.188L31.41 161.85L31.26 161.663L31.17 161.52L30.945 161.115L30.8175 160.905L30.645 160.5L30.4725 160.125C30.3723 159.86 30.2871 159.59 30.2175 159.315L30.1425 158.887L30.0675 158.49L30 157.5V37.5C30 31.5326 32.3705 25.8097 36.5901 21.5901C40.8097 17.3705 46.5326 15 52.5 15H127.5ZM90 37.5C88.0109 37.5 86.1032 38.2902 84.6967 39.6967C83.2902 41.1032 82.5 43.0109 82.5 45C76.5326 45 70.8097 47.3705 66.5901 51.5901C62.3705 55.8097 60 61.5326 60 67.5C60 73.4674 62.3705 79.1903 66.5901 83.4099C70.8097 87.6295 76.5326 90 82.5 90V105C79.4775 105.098 76.875 103.65 75.495 101.25C74.4934 99.5415 72.8566 98.2984 70.9419 97.7922C69.0272 97.286 66.9899 97.5577 65.2748 98.5479C63.5596 99.5382 62.3058 101.167 61.7869 103.078C61.268 104.989 61.5261 107.028 62.505 108.75C64.4193 112.07 67.1499 114.846 70.4378 116.815C73.7257 118.784 77.462 119.88 81.2925 120L82.5 119.992C82.499 121.982 83.2882 123.89 84.694 125.297C86.0999 126.704 88.0071 127.495 89.9963 127.496C91.9854 127.497 93.8934 126.708 95.3006 125.302C96.7079 123.896 97.499 121.989 97.5 120L98.82 119.962C104.667 119.625 110.152 117.02 114.109 112.702C118.066 108.385 120.184 102.694 120.012 96.8397C119.84 90.9855 117.392 85.4289 113.189 81.3508C108.985 77.2727 103.357 74.9944 97.5 75V60C100.522 59.9025 103.125 61.35 104.505 63.75C105.507 65.4585 107.143 66.7016 109.058 67.2078C110.973 67.714 113.01 67.4423 114.725 66.4521C116.44 65.4618 117.694 63.8333 118.213 61.922C118.732 60.0107 118.474 57.9717 117.495 56.25C115.581 52.93 112.85 50.154 109.562 48.1852C106.274 46.2164 102.538 45.12 98.7075 45H97.5C97.5 43.0109 96.7098 41.1032 95.3033 39.6967C93.8968 38.2902 91.9891 37.5 90 37.5ZM97.5 90C99.4891 90 101.397 90.7902 102.803 92.1967C104.21 93.6032 105 95.5109 105 97.5C105 99.4891 104.21 101.397 102.803 102.803C101.397 104.21 99.4891 105 97.5 105V90ZM82.5 60V75C80.5109 75 78.6032 74.2098 77.1967 72.8033C75.7902 71.3968 75 69.4891 75 67.5C75 65.5109 75.7902 63.6032 77.1967 62.1967C78.6032 60.7902 80.5109 60 82.5 60Z" fill="url(#paint0_radial_0_387)"/>
</g>
<defs>
<radialGradient id="paint0_radial_0_387" cx="0" cy="0" r="1" gradientTransform="matrix(0.00263343 139.092 -172.533 0.00509103 90 90.0006)" gradientUnits="userSpaceOnUse">
<stop stop-color="#003867"/>
<stop offset="1" stop-color="white"/>
</radialGradient>
</defs>
</svg>
