<svg preserveAspectRatio="xMidYMid meet" width="100%" height="100%" overflow="visible" style="display: block;" viewBox="0 0 189 189" fill="none" xmlns="http://www.w3.org/2000/svg">
<g id="Frame">
<g id="Vector">
<path d="M94.5 15.75L95.4214 15.8051C97.1792 16.0124 98.8159 16.8059 100.068 18.0575C101.319 19.3091 102.113 20.9458 102.32 22.7036L102.375 23.625V55.125L102.414 56.3063C102.696 60.0561 104.31 63.5814 106.965 66.2447C109.62 68.9081 113.14 70.5337 116.889 70.8278L118.125 70.875H149.625L150.546 70.9301C152.304 71.1374 153.941 71.9309 155.193 73.1825C156.444 74.4341 157.238 76.0708 157.445 77.8286L157.5 78.75V149.625C157.5 155.651 155.198 161.449 151.064 165.834C146.93 170.218 141.277 172.857 135.261 173.211L133.875 173.25H55.125C49.099 173.25 43.3006 170.948 38.9162 166.814C34.5318 162.68 31.8929 157.027 31.5394 151.011L31.5 149.625V39.375C31.4997 33.349 33.8021 27.5506 37.9361 23.1662C42.0702 18.7818 47.7233 16.1429 53.739 15.7894L55.125 15.75H94.5ZM118.125 102.375H70.875C68.7864 102.375 66.7834 103.205 65.3065 104.682C63.8297 106.158 63 108.161 63 110.25C63 112.339 63.8297 114.342 65.3065 115.818C66.7834 117.295 68.7864 118.125 70.875 118.125H118.125C120.214 118.125 122.217 117.295 123.693 115.818C125.17 114.342 126 112.339 126 110.25C126 108.161 125.17 106.158 123.693 104.682C122.217 103.205 120.214 102.375 118.125 102.375Z" fill="url(#paint0_radial_0_409)"/>
</g>
<g id="Vector_2">
<path d="M149.625 55.125H118.125L118.117 23.6171L149.625 55.125Z" fill="url(#paint1_radial_0_409)"/>
</g>
</g>
<defs>
<radialGradient id="paint0_radial_0_409" cx="0" cy="0" r="1" gradientTransform="matrix(0.0027651 146.045 -181.159 0.00534554 94.5 94.5)" gradientUnits="userSpaceOnUse">
<stop stop-color="#003867"/>
<stop offset="1" stop-color="white"/>
</radialGradient>
<radialGradient id="paint1_radial_0_409" cx="0" cy="0" r="1" gradientUnits="userSpaceOnUse" gradientTransform="translate(133.871 39.3711) rotate(89.9986) scale(29.2164 45.3011)">
<stop stop-color="#003867"/>
<stop offset="1" stop-color="white"/>
</radialGradient>
</defs>
</svg>
