<svg preserveAspectRatio="xMidYMid meet" width="100%" height="100%" overflow="visible" style="display: block;" viewBox="0 0 218 218" fill="none" xmlns="http://www.w3.org/2000/svg">
<g id="Frame">
<path id="Vector" d="M109.772 59.0417L158.958 108.228L79.0886 188.089C77.3855 189.792 75.0755 190.75 72.6667 190.75H36.3333C33.9243 190.75 31.6139 189.793 29.9104 188.09C28.207 186.386 27.25 184.076 27.25 181.667V145.333C27.2505 142.924 28.2078 140.614 29.9114 138.911L109.772 59.0417ZM158.877 34.5348C164.773 36.1141 170.15 39.2179 174.467 43.5342C178.784 47.8505 181.888 53.2273 183.468 59.1238C185.048 65.0204 185.047 71.2289 183.467 77.1252C181.886 83.0216 178.781 88.3979 174.464 92.7136L171.811 95.375L122.625 46.1888L125.286 43.5364C129.604 39.221 134.98 36.1175 140.876 34.5375C146.772 32.9574 152.98 32.9565 158.877 34.5348Z" fill="url(#paint0_radial_0_389)"/>
</g>
<defs>
<radialGradient id="paint0_radial_0_389" cx="0" cy="0" r="1" gradientUnits="userSpaceOnUse" gradientTransform="translate(105.951 112.051) rotate(89.9986) scale(145.951 226.309)">
<stop stop-color="#003867"/>
<stop offset="1" stop-color="white"/>
</radialGradient>
</defs>
</svg>
